<?xml version="1.0" standalone="no"?>
<!DOCTYPE svg PUBLIC "-//W3C//DTD SVG 20010904//EN"
 "http://www.w3.org/TR/2001/REC-SVG-20010904/DTD/svg10.dtd">
<svg version="1.0" xmlns="http://www.w3.org/2000/svg"
 width="486.000000pt" height="486.000000pt" viewBox="0 0 486.000000 486.000000"
 preserveAspectRatio="xMidYMid meet">

<g transform="translate(0.000000,486.000000) scale(0.100000,-0.100000)"
fill="#000000" stroke="none">
<path d="M0 2430 l0 -2430 2430 0 2430 0 0 2430 0 2430 -2430 0 -2430 0 0
-2430z m4710 -35 l0 -2345 -714 0 -714 0 -7 28 -8 27 -10 -28 -11 -27 -113 0
c-97 0 -112 2 -107 15 5 11 10 13 19 5 9 -8 14 -6 19 6 13 34 6 54 -21 60 -33
9 -56 -18 -50 -59 l4 -27 -98 0 -97 0 -4 48 c-3 27 0 53 7 62 17 23 38 96 31
109 -4 6 1 22 9 35 9 14 17 46 17 71 1 25 7 50 15 56 7 6 13 19 13 28 0 18 18
41 32 41 4 0 8 -18 8 -39 0 -49 11 -57 52 -37 17 9 32 15 33 14 14 -18 21 -47
14 -63 -4 -11 -8 -35 -8 -53 -1 -18 -8 -47 -17 -63 -8 -17 -14 -45 -12 -62 3
-28 7 -32 36 -35 46 -5 60 11 67 76 16 137 65 232 73 142 4 -35 17 -60 33 -60
12 0 41 59 34 70 -3 6 3 10 13 10 13 0 22 -9 26 -24 3 -14 15 -27 25 -31 11
-3 24 -19 30 -35 19 -56 68 -28 76 43 1 10 7 23 13 29 12 12 11 14 31 -53 11
-34 65 -87 74 -71 3 4 10 27 17 51 12 47 0 91 -26 91 -6 0 -25 7 -40 15 -16 8
-36 15 -45 15 -25 0 -62 47 -64 82 -1 18 -5 41 -8 51 -4 9 -9 24 -12 32 -2 8
-9 15 -15 15 -13 0 -13 -36 0 -60 6 -12 6 -21 1 -25 -11 -6 -111 88 -111 104
0 12 -51 61 -64 61 -16 0 -105 63 -100 71 3 5 1 9 -3 9 -5 0 -15 -15 -21 -34
-7 -19 -31 -50 -52 -70 -33 -30 -40 -42 -40 -74 0 -35 -3 -40 -43 -58 -82 -38
-91 -6 -17 58 27 24 50 50 50 59 0 9 8 27 19 40 10 13 28 51 40 84 26 69 50
102 62 83 4 -6 4 -19 -1 -28 -5 -9 -5 -22 0 -30 7 -11 11 -10 24 3 11 10 12
17 4 19 -7 3 -5 13 7 32 19 28 54 117 58 146 7 46 40 120 54 120 12 0 14 -7 9
-35 -8 -43 14 -90 43 -92 18 -2 21 4 21 42 0 24 5 47 10 50 13 8 13 61 0 86
-8 13 -7 25 0 39 7 14 8 26 0 39 -7 14 -7 22 1 26 11 7 5 217 -7 236 -3 6 -13
9 -21 7 -10 -2 -16 -20 -19 -61 -2 -31 -13 -77 -24 -102 -11 -24 -20 -48 -20
-53 0 -5 -11 -29 -24 -54 -13 -25 -27 -59 -31 -76 -3 -18 -10 -32 -13 -32 -4
0 -18 -21 -32 -48 -22 -43 -58 -100 -70 -112 -16 -16 -80 -130 -80 -143 0 -9
-3 -17 -7 -19 -8 -3 -59 -78 -80 -116 -7 -12 -10 -29 -6 -38 3 -9 -4 -24 -16
-35 -11 -11 -21 -24 -21 -30 0 -5 -12 -28 -27 -52 -15 -23 -27 -46 -28 -50 0
-4 -7 -12 -15 -17 -9 -5 -15 -24 -15 -49 0 -22 -4 -39 -9 -38 -8 2 -18 -13
-48 -75 -14 -30 -9 -36 23 -31 36 5 65 29 71 58 4 26 38 33 38 8 -1 -23 -18
-45 -51 -61 -17 -9 -32 -31 -43 -62 -18 -51 -16 -70 10 -70 18 0 18 -20 -2
-45 -13 -17 -16 -18 -24 -5 -9 13 -11 13 -20 0 -6 -10 -3 -21 12 -37 l21 -23
-50 0 -51 0 15 30 c9 19 12 41 8 57 -6 24 -7 24 -25 8 -10 -9 -22 -34 -25 -56
l-7 -39 -126 0 c-134 0 -162 9 -162 53 0 30 -52 117 -70 117 -15 0 -20 -73 -6
-84 8 -6 16 -28 18 -48 3 -31 1 -38 -14 -38 -10 0 -18 6 -18 14 0 15 -37 32
-47 22 -3 -3 0 -12 7 -21 10 -13 9 -15 -9 -15 -17 0 -21 6 -21 30 0 18 5 30
13 30 23 0 45 33 37 55 -4 11 -3 35 1 53 10 44 2 62 -25 62 -27 0 -71 29 -45
30 9 0 22 7 29 15 17 20 -2 58 -36 73 -24 11 -26 44 -4 66 17 17 11 44 -10 51
-11 4 -20 15 -20 27 0 17 4 19 25 14 14 -4 25 -2 25 3 0 22 -24 60 -40 64 -9
2 -20 16 -23 29 -4 14 -28 60 -54 102 -35 58 -44 79 -35 88 9 9 20 8 47 -5 20
-9 44 -17 55 -17 10 0 22 -5 25 -10 3 -6 14 -10 24 -10 10 0 24 -7 31 -15 6
-8 15 -14 18 -13 11 2 85 -13 120 -25 24 -8 37 -8 51 0 10 6 42 14 72 18 72 8
89 14 89 29 0 7 12 13 28 13 43 0 212 84 212 106 0 16 43 43 63 39 4 -1 7 3 7
9 0 14 61 69 77 69 7 0 13 6 13 13 0 13 93 97 108 97 6 0 13 12 17 28 3 15 13
35 22 44 8 9 13 24 11 33 -3 15 -6 14 -28 -5 -13 -12 -32 -19 -42 -17 -11 3
-18 0 -18 -8 0 -8 -10 -17 -22 -21 -24 -7 -68 -36 -104 -67 -14 -11 -24 -15
-28 -8 -6 10 -95 -23 -106 -40 -8 -11 -58 -29 -84 -29 -12 0 -39 -9 -61 -20
-22 -11 -45 -20 -51 -20 -7 0 -14 -7 -18 -15 -3 -8 -12 -15 -21 -15 -8 0 -15
-7 -15 -15 0 -9 -9 -15 -25 -15 -14 0 -25 5 -25 10 0 6 -6 5 -14 -2 -8 -7 -12
-15 -10 -17 6 -7 -30 -30 -38 -25 -5 3 -8 16 -8 28 0 19 -7 25 -32 29 -23 3
-36 0 -41 -10 -14 -24 -47 18 -41 52 4 22 2 26 -13 21 -10 -3 -25 -1 -33 5
-11 8 -5 9 26 6 39 -4 90 16 63 25 -8 3 -9 9 -4 18 6 10 11 9 22 -5 7 -11 13
-14 13 -8 0 27 87 36 128 14 18 -10 22 -9 22 3 0 14 11 17 92 31 20 3 38 11
41 18 2 7 22 18 43 26 22 8 50 22 63 32 13 11 29 19 36 19 7 0 15 11 17 25 6
30 -11 33 -48 8 -22 -14 -50 -16 -162 -15 -75 0 -144 -4 -154 -9 -12 -7 -60
-7 -141 0 -138 11 -187 29 -249 95 -20 21 -47 44 -60 50 -27 14 -32 57 -8 68
9 4 0 9 -27 13 -23 4 -44 14 -47 21 -3 8 -17 19 -32 24 -14 6 -28 20 -31 31
-3 11 -17 25 -30 30 -14 5 -27 18 -30 30 -4 13 -11 18 -21 14 -8 -3 -20 -1
-27 5 -8 6 -20 6 -37 -2 -23 -11 -25 -17 -20 -52 4 -29 2 -37 -7 -31 -7 4 -11
16 -8 26 3 11 2 19 -3 19 -4 0 -7 10 -6 22 3 31 -14 68 -31 68 -7 0 -13 2 -13
4 0 2 -3 11 -6 20 -4 11 -1 16 10 16 20 0 21 16 1 24 -9 3 -15 19 -15 41 0 19
-3 35 -7 35 -5 0 -14 12 -20 27 -10 21 -10 29 0 36 9 7 9 10 0 14 -7 2 -13 22
-13 43 0 58 -11 100 -26 100 -8 0 -15 12 -16 28 -2 41 -3 46 -13 62 -17 26
-19 43 -19 145 0 129 13 238 30 248 19 11 18 28 -1 21 -8 -4 -23 -3 -32 0 -12
5 -14 9 -5 18 7 7 12 23 13 37 0 24 1 24 9 6 23 -54 104 -100 193 -111 67 -7
148 -35 140 -47 -7 -12 98 -3 182 17 34 8 64 10 70 5 5 -5 22 -9 37 -9 21 0
33 8 47 33 11 17 30 45 43 60 26 32 65 149 63 189 -1 17 3 24 11 21 6 -2 18 5
26 16 20 28 99 32 128 6 33 -30 57 -77 64 -125 7 -47 48 -110 70 -110 8 0 29
-14 47 -31 27 -25 47 -33 118 -45 122 -20 189 -18 234 6 20 11 48 20 61 20 13
0 34 8 47 19 13 10 35 22 49 26 48 15 70 38 106 109 45 92 72 124 110 128 27
3 29 0 32 -34 2 -21 7 -38 11 -38 5 0 11 -9 14 -20 9 -33 34 -13 46 37 7 25 9
70 6 101 -7 70 8 106 49 110 54 7 58 -3 24 -58 -29 -47 -30 -51 -15 -68 10
-10 17 -23 17 -28 0 -5 14 -22 31 -37 l32 -28 -13 -67 c-7 -37 -16 -152 -19
-257 -5 -128 -12 -199 -21 -218 -14 -28 -60 -57 -90 -57 -18 0 -30 -27 -30
-68 0 -12 -7 -34 -16 -47 -9 -14 -13 -32 -10 -42 4 -9 2 -19 -3 -23 -6 -3 -12
-32 -15 -64 -3 -31 -14 -75 -25 -97 -12 -22 -21 -45 -21 -51 0 -6 -9 -31 -21
-54 -17 -36 -18 -46 -7 -57 11 -12 15 -12 30 5 16 19 18 18 46 -41 16 -33 26
-65 22 -71 -9 -15 0 -60 12 -60 5 0 6 15 3 34 -14 72 34 39 50 -34 4 -19 12
-41 17 -47 6 -7 8 -19 5 -27 -4 -10 3 -17 23 -21 26 -6 29 -10 28 -46 -1 -55
31 -98 65 -88 1 0 14 -4 28 -9 15 -6 32 -7 40 -2 8 6 25 1 47 -12 19 -11 44
-22 55 -23 36 -4 37 -4 37 -20 0 -29 90 -59 105 -35 11 18 27 10 20 -10 -7
-21 19 -57 45 -60 32 -5 40 1 40 26 0 24 3 25 28 19 15 -3 34 -13 43 -21 8 -8
20 -14 25 -14 5 0 20 -9 34 -20 14 -11 33 -20 43 -20 10 0 20 -7 23 -15 4 -10
13 -13 25 -10 13 5 28 -3 48 -25 21 -23 34 -30 48 -26 11 4 33 0 49 -9 16 -8
25 -15 20 -15 -5 0 45 -27 111 -60 66 -33 123 -66 127 -75 3 -8 11 -15 19 -15
7 0 24 -11 36 -24 20 -21 23 -34 21 -93 -3 -98 -1 -167 5 -161 3 3 5 964 5
2136 l0 2132 25 0 25 0 0 -2345z m-2310 1855 c51 -26 126 -50 158 -50 13 0 20
-4 17 -10 -4 -6 10 -10 36 -10 30 0 52 -8 78 -27 49 -36 88 -78 107 -116 9
-18 22 -39 29 -47 15 -17 57 -120 50 -120 -3 0 -17 7 -30 16 -15 10 -25 12
-25 5 0 -6 -10 -11 -22 -11 -20 0 -18 -4 20 -41 23 -23 42 -45 42 -49 0 -11
49 -30 80 -30 34 0 73 46 51 59 -16 10 3 26 42 35 25 6 29 3 38 -24 6 -16 15
-30 20 -30 5 0 9 -9 9 -20 0 -30 19 -65 42 -75 12 -6 23 -19 25 -30 8 -37 4
-139 -8 -254 -7 -68 -8 -116 -3 -120 5 -3 20 -44 34 -91 29 -103 47 -150 59
-150 5 0 12 -17 16 -39 7 -42 -20 -106 -46 -106 -8 0 -23 -5 -34 -12 -19 -11
-21 -9 -22 29 -1 23 -6 44 -11 47 -4 3 -19 28 -31 54 -19 40 -22 58 -17 105 6
60 -4 96 -20 71 -5 -8 -10 -39 -10 -69 -2 -67 -13 -120 -26 -120 -5 0 -19 11
-31 24 -27 29 -71 40 -167 42 -41 1 -112 5 -157 9 l-82 8 -18 -34 c-21 -40
-85 -109 -101 -109 -6 0 -15 -6 -19 -13 -7 -12 -44 -34 -114 -67 -32 -14 -130
2 -149 25 -8 9 -30 14 -59 14 -44 0 -111 7 -158 17 -24 5 -32 24 -10 24 7 0
21 6 31 13 21 16 14 37 -29 83 -14 15 -25 33 -25 40 0 25 -74 38 -137 25 -37
-9 -84 -11 -140 -6 -57 5 -83 3 -83 -4 0 -6 -10 -11 -21 -11 -20 0 -21 4 -15
54 6 43 4 57 -9 70 -10 9 -14 23 -11 31 3 8 1 15 -4 15 -6 0 -10 20 -10 44 0
26 -6 48 -15 56 -12 10 -14 33 -9 134 4 66 10 125 15 131 6 5 9 2 9 -8 0 -9 7
-17 16 -17 15 0 15 2 0 25 -15 23 -15 25 4 37 15 10 20 24 20 60 0 26 4 49 9
53 5 3 7 21 4 40 -4 28 -2 35 11 35 12 0 16 9 16 36 0 44 41 92 115 135 28 16
43 29 36 29 -10 0 -12 3 -5 10 6 6 30 6 69 0 40 -7 61 -6 63 0 8 22 34 40 70
46 55 10 82 31 82 65 0 16 5 29 10 29 6 0 10 -7 10 -15 0 -18 17 -20 23 -2 3
9 7 9 19 -1 11 -9 18 -10 23 -2 3 6 11 8 16 4 5 -3 26 -7 46 -9 20 -2 40 -10
45 -18 6 -11 16 -13 36 -8 35 10 35 35 0 39 -31 4 -28 32 4 32 10 0 16 4 13
10 -3 5 -20 9 -37 7 -17 -1 -33 3 -35 10 -11 30 125 25 187 -7z m696 -1244 c9
-10 11 -17 3 -21 -12 -8 -22 0 -25 20 -3 19 4 19 22 1z m-116 -46 c0 -12 -36
-12 -100 -1 -43 8 -41 9 28 10 42 0 72 -3 72 -9z m-98 -134 c14 -21 8 -76 -10
-94 -22 -22 -95 -43 -112 -32 -9 6 -6 10 8 14 36 12 62 54 62 103 0 42 1 43
23 32 12 -7 25 -17 29 -23z m-499 9 c-3 -13 -30 -18 -51 -10 -14 5 -14 7 -2
16 19 11 56 8 53 -6z m-385 -69 c6 -27 -17 -46 -54 -46 -19 0 -34 3 -34 6 0 4
10 24 22 45 20 36 23 38 42 25 12 -7 22 -21 24 -30z m652 20 c0 -7 7 -19 16
-26 8 -8 20 -22 25 -33 10 -17 8 -18 -13 -12 -12 4 -24 12 -26 16 -2 5 -10 9
-18 9 -14 0 -20 41 -7 53 11 12 23 8 23 -7z m-51 -229 c20 -17 31 -33 27 -42
-7 -20 -17 -19 -47 8 -23 20 -59 76 -59 92 0 7 21 -9 79 -58z m-1387 -196 c3
8 13 -2 24 -26 18 -35 19 -46 9 -85 -14 -52 -38 -61 -43 -15 -2 16 -7 32 -12
35 -4 3 -6 27 -3 53 3 27 9 43 13 37 6 -9 9 -9 12 1z m263 -887 c25 -10 37
-51 22 -74 -20 -34 -40 -25 -34 15 3 19 1 37 -4 40 -9 6 -13 25 -5 25 2 0 12
-3 21 -6z m215 -33 c0 -11 -5 -23 -12 -27 -8 -5 -9 -2 -5 9 3 10 2 17 -4 17
-6 0 -7 5 -4 10 10 17 25 11 25 -9z m-273 -58 c-4 -17 -4 -17 -12 0 -4 9 -4
25 0 35 8 16 8 16 12 0 3 -10 3 -26 0 -35z m369 12 c4 -8 12 -15 20 -15 8 0
14 -7 14 -15 0 -8 -2 -15 -5 -15 -4 0 -73 30 -84 37 -1 1 0 6 4 12 9 16 45 13
51 -4z m-442 -97 c12 -79 12 -82 35 -143 24 -62 34 -94 41 -130 4 -22 12 -51
17 -65 13 -31 33 -115 33 -137 0 -9 9 -35 19 -57 22 -48 31 -83 38 -151 3 -27
9 -54 14 -59 14 -15 11 -56 -4 -56 -25 0 -76 -31 -81 -48 -11 -41 -5 -154 9
-169 11 -10 12 -19 5 -33 -14 -26 -12 -86 3 -98 20 -17 79 -9 87 12 3 10 1 53
-6 95 -13 81 -6 121 15 83 14 -26 53 -29 71 -7 8 9 11 30 7 55 -3 22 -1 42 3
45 15 9 40 -7 40 -27 0 -10 7 -33 16 -51 11 -20 16 -53 15 -93 -2 -63 13 -92
42 -81 19 7 41 -8 32 -22 -3 -7 -15 -9 -25 -6 -26 8 -34 -24 -15 -68 l15 -37
-104 0 -105 0 -3 33 c-3 30 -5 32 -43 32 -38 0 -40 -2 -43 -32 l-3 -33 -93 0
c-91 0 -93 1 -89 23 6 35 -8 46 -47 38 -28 -5 -36 -12 -38 -34 l-3 -27 -93 0
-93 0 -6 37 c-4 20 -2 42 4 49 6 7 9 39 8 71 -3 89 11 363 21 407 5 25 5 47
-2 62 -8 17 -8 27 2 39 8 9 10 27 6 51 -4 19 -3 41 2 47 5 7 12 53 15 102 7
95 38 202 51 170 3 -9 3 -21 0 -27 -3 -5 1 -17 10 -26 10 -12 12 -22 6 -32 -5
-8 -10 -32 -10 -53 0 -21 -4 -46 -10 -56 -5 -10 -6 -30 -2 -45 l7 -27 27 20
c17 14 29 35 33 62 l7 41 15 -28 c10 -20 11 -30 3 -32 -8 -3 -7 -8 1 -18 9
-11 9 -25 -1 -58 -7 -25 -9 -49 -5 -56 4 -6 2 -17 -4 -24 -14 -17 -15 -51 -8
-263 3 -95 10 -181 17 -192 7 -14 7 -27 1 -39 -10 -19 -8 -88 3 -99 4 -4 15
-2 26 5 14 8 21 9 26 0 4 -7 11 -2 19 12 23 43 -1 139 -25 100 -5 -8 -12 -11
-16 -7 -4 4 5 18 19 31 32 30 34 56 8 80 -16 15 -19 27 -14 67 3 28 1 54 -5
61 -5 7 -13 73 -16 147 -5 133 -5 133 15 115 14 -13 18 -25 14 -44 -3 -15 -1
-40 6 -56 12 -31 12 -34 28 -134 6 -40 17 -69 27 -77 13 -9 15 -22 11 -52 -6
-47 13 -81 47 -81 27 0 34 20 31 85 -2 36 -5 40 -28 40 -36 0 -44 13 -15 24
14 5 27 15 30 23 6 16 -10 78 -20 78 -4 0 -8 10 -9 23 -10 101 -21 151 -35
161 -11 8 -15 20 -12 33 3 11 -1 34 -10 51 -9 17 -16 49 -16 71 0 22 -4 42 -9
45 -11 7 -21 54 -30 139 -7 71 -4 80 17 46 9 -15 19 -18 35 -13 30 10 47 35
36 55 -4 9 -6 19 -2 22 11 12 -18 36 -35 30 -12 -5 -10 0 6 17 25 27 27 42 10
69 -12 20 -4 56 11 47 5 -3 12 -25 15 -48z m83 30 c-3 -8 -6 -5 -6 6 -1 11 2
17 5 13 3 -3 4 -12 1 -19z m91 -87 c6 -46 19 -92 27 -101 8 -9 15 -25 15 -36
0 -10 7 -32 15 -48 8 -15 15 -41 15 -56 0 -15 9 -39 20 -53 11 -14 20 -34 20
-44 0 -11 7 -28 15 -39 8 -10 15 -33 15 -50 0 -17 9 -43 20 -57 23 -29 25 -48
8 -65 -21 -21 -34 -13 -35 24 -1 43 -9 52 -31 37 -17 -11 -18 -20 -6 -110 8
-65 -11 -73 -20 -9 -4 24 -14 50 -21 56 -8 7 -15 20 -15 30 0 10 -7 23 -15 30
-19 15 -21 111 -3 108 6 -2 18 9 25 24 12 24 11 32 -7 72 -22 45 -28 65 -30
101 -1 20 -1 20 -15 1 -8 -11 -18 -17 -21 -13 -4 4 -2 13 5 21 15 18 16 86 3
151 -14 69 -15 76 -14 105 3 45 18 6 30 -79z m-421 -97 c-3 -3 -12 -4 -19 -1
-8 3 -5 6 6 6 11 1 17 -2 13 -5z m-152 -24 c-3 -5 -14 -10 -23 -9 -14 0 -13 2
3 9 27 11 27 11 20 0z m532 -22 c-3 -8 -6 -5 -6 6 -1 11 2 17 5 13 3 -3 4 -12
1 -19z m-468 -24 c-6 -8 -18 -14 -25 -14 -20 0 -17 28 4 33 25 5 35 -3 21 -19z
m2241 -6 c0 -18 -2 -20 -9 -8 -6 8 -7 18 -5 22 9 14 14 9 14 -14z m-2410 -12
c0 -18 -6 -22 -50 -30 l-35 -7 28 25 c31 29 57 34 57 12z m-107 -66 c-3 -13
-14 -20 -29 -20 -30 0 -31 18 -1 30 33 13 36 12 30 -10z m787 -10 c5 0 8 -9 7
-21 -1 -19 -2 -19 -14 -3 -7 10 -12 27 -12 38 1 17 2 18 6 4 2 -10 8 -18 13
-18z m-605 -35 c-1 -30 -8 -61 -15 -70 -10 -12 -10 -15 2 -15 8 0 19 5 26 12
9 9 13 7 17 -8 4 -10 10 -26 14 -34 5 -8 4 -28 -2 -44 -7 -21 -7 -34 2 -48 10
-16 9 -23 -4 -38 -25 -27 -16 -81 15 -97 19 -10 21 -13 7 -13 -23 0 -36 -37
-27 -72 5 -17 3 -42 -7 -69 -8 -26 -11 -53 -7 -68 4 -14 6 -30 5 -36 -7 -22
-11 -207 -5 -216 3 -5 12 -2 21 7 11 11 19 12 27 4 16 -16 -7 -46 -32 -42 -16
2 -23 -4 -28 -22 -6 -25 -8 -26 -89 -26 -80 0 -83 1 -89 25 -7 26 -31 34 -39
13 -4 -10 -8 -9 -16 2 -18 25 -12 33 19 27 22 -5 32 -2 39 11 11 22 11 72 0
94 -5 9 -5 27 0 40 4 12 4 36 0 52 -6 19 -5 42 3 63 9 24 9 41 1 68 -10 30 -8
46 7 92 22 68 29 75 76 77 32 1 39 5 45 29 9 32 2 57 -14 57 -6 0 -1 10 11 23
21 22 30 58 15 56 -25 -4 -31 7 -35 70 -6 84 -16 104 -34 69 -10 -20 -19 -24
-39 -21 -22 5 -25 2 -26 -23 -1 -16 0 -33 1 -39 1 -5 2 -19 1 -30 -1 -11 -3
-71 -6 -134 -2 -63 -9 -119 -15 -125 -5 -5 -10 -18 -10 -29 0 -10 -5 -15 -10
-12 -6 4 -9 14 -8 23 2 14 -6 18 -43 20 -45 3 -47 2 -47 -25 0 -18 9 -36 26
-51 26 -23 26 -23 4 -28 -28 -8 -36 -35 -20 -69 9 -21 9 -28 -1 -34 -26 -17
-22 -101 5 -101 10 0 14 -14 14 -53 0 -29 5 -58 10 -63 7 -7 8 -19 1 -36 -5
-14 -7 -29 -4 -32 4 -3 -10 -6 -29 -6 -58 0 -66 30 -61 245 2 99 6 232 9 295
4 63 7 140 9 170 1 30 3 61 4 68 2 20 31 14 52 -10 12 -15 21 -19 26 -12 5 6
16 13 26 17 10 4 17 17 17 34 0 34 45 77 90 86 17 4 42 18 56 32 14 14 33 25
43 25 15 0 17 -8 16 -55z m-265 5 c0 -5 -5 -10 -11 -10 -5 0 -7 5 -4 10 3 6 8
10 11 10 2 0 4 -4 4 -10z m-35 -36 c0 -12 -8 -20 -22 -22 -13 -2 -35 -16 -50
-31 -28 -27 -77 -39 -88 -21 -3 6 1 10 10 10 9 0 41 20 72 45 58 47 78 52 78
19z m1171 -52 c10 -20 29 -50 42 -65 25 -32 21 -47 -12 -47 -28 0 -46 18 -46
47 0 32 -21 73 -38 73 -9 0 -12 6 -8 16 3 9 6 23 6 31 0 14 2 14 19 -1 10 -9
27 -33 37 -54z m-90 -9 c-10 -10 -19 5 -10 18 6 11 8 11 12 0 2 -7 1 -15 -2
-18z m-1281 -68 c-22 -19 -46 -34 -53 -35 -7 0 -10 -5 -6 -11 4 -6 6 -56 6
-110 -1 -73 3 -103 13 -113 13 -12 12 -15 -1 -20 -12 -4 -15 -19 -14 -58 2
-29 -2 -64 -8 -78 -5 -14 -8 -29 -5 -33 3 -4 -1 -14 -7 -22 -8 -10 -8 -19 -2
-32 7 -12 6 -25 -2 -43 -6 -14 -11 -36 -11 -50 0 -21 5 -25 36 -28 33 -3 37 0
44 25 5 22 2 31 -19 48 -33 26 -33 35 -1 35 23 0 25 4 25 43 0 24 -5 48 -11
54 -9 9 -8 16 5 28 16 17 19 30 17 75 -1 14 5 42 14 63 20 47 13 72 -25 88
-31 14 -31 29 1 29 16 0 19 7 19 43 0 25 8 51 19 66 l18 24 10 -34 c12 -45 10
-134 -6 -186 -8 -31 -9 -48 -1 -63 7 -13 7 -26 1 -37 -5 -10 -10 -92 -10 -183
-3 -231 -1 -220 -34 -220 -24 0 -27 3 -21 25 6 26 7 26 -63 29 -13 1 -18 -7
-18 -24 0 -18 -6 -26 -23 -28 -25 -4 -25 0 5 163 16 85 18 129 14 240 -1 39 0
106 3 149 5 83 -6 128 -27 107 -16 -16 -37 -14 -37 4 0 8 9 15 19 15 11 0 32
14 48 30 15 17 35 30 43 30 8 0 28 9 45 20 45 29 45 13 0 -25z m1335 -29 c0
-3 -4 -8 -10 -11 -5 -3 -10 -1 -10 4 0 6 5 11 10 11 6 0 10 -2 10 -4z m134
-46 c20 -30 23 -40 11 -40 -8 0 -17 11 -21 25 -3 14 -10 25 -15 25 -5 0 -9 7
-9 15 0 22 5 19 34 -25z m-1634 0 c0 -5 -4 -10 -9 -10 -13 0 -22 -45 -22 -120
0 -36 0 -96 0 -135 -1 -84 -1 -82 4 -170 3 -38 3 -105 0 -147 l-6 -78 -72 0
-72 0 -3 93 c-5 168 -5 166 29 148 11 -7 32 -9 46 -5 20 5 25 12 25 40 0 21
-6 37 -18 43 -15 9 -15 10 -1 16 13 5 16 25 17 120 1 92 -2 115 -13 115 -32 0
-22 20 25 50 28 18 50 36 50 41 0 5 5 9 10 9 6 0 10 -4 10 -10z m1734 -122
c46 -52 59 -88 31 -88 -9 0 -20 10 -25 23 -5 12 -9 16 -9 9 -1 -7 4 -22 9 -32
8 -15 6 -21 -12 -31 -19 -10 -25 -8 -49 19 -23 26 -28 40 -27 84 0 29 3 56 5
61 10 17 33 4 77 -45z m-1884 -35 c0 -16 -5 -35 -11 -43 -9 -12 -10 -12 -5 3
3 10 2 27 -4 36 -9 18 -4 31 12 31 4 0 8 -12 8 -27z m1240 -9 c0 -8 -5 -12
-10 -9 -6 4 -8 11 -5 16 9 14 15 11 15 -7z m-1238 -85 c5 -3 4 -17 -3 -33 -9
-20 -10 -29 -1 -38 7 -7 8 -16 3 -22 -5 -6 -11 -22 -13 -36 l-4 -25 -12 28
c-7 16 -12 46 -12 67 0 46 20 103 28 80 3 -8 9 -18 14 -21z m2696 -15 c4 -29
-25 -39 -38 -13 -6 10 -8 24 -5 30 11 17 40 5 43 -17z m-772 -100 c1 -53 4
-62 20 -78 8 -9 28 -16 44 -16 16 0 32 -5 36 -11 5 -9 -1 -10 -20 -5 -17 4
-34 2 -42 -5 -20 -16 -64 25 -64 59 0 13 -7 36 -16 52 -10 15 -14 36 -10 45
10 28 51 -5 52 -41z m-101 19 c1 -11 13 -39 29 -61 27 -39 30 -82 6 -82 -20 0
-42 49 -35 78 4 20 1 33 -10 42 -18 15 -20 54 -2 47 6 -2 12 -13 12 -24z
m-1205 -17 c0 -2 -7 -6 -15 -10 -8 -3 -15 -1 -15 4 0 6 7 10 15 10 8 0 15 -2
15 -4z m1128 -48 c7 -7 12 -21 12 -31 0 -39 73 -120 101 -111 18 5 43 -21 51
-51 3 -11 9 -28 13 -37 7 -16 -1 -18 -92 -18 l-99 0 4 34 c2 18 -3 47 -12 64
-10 19 -12 33 -6 37 13 8 13 92 0 100 -5 3 -10 10 -10 16 0 13 24 11 38 -3z
m-324 -27 c3 -5 -1 -12 -10 -15 -22 -9 -24 -8 -24 9 0 16 25 21 34 6z m-530
-22 c-7 -11 -34 -12 -34 -1 0 14 11 21 26 15 8 -3 11 -9 8 -14z m-474 -15 c0
-8 -4 -12 -10 -9 -5 3 -10 10 -10 16 0 5 5 9 10 9 6 0 10 -7 10 -16z m190 6
c0 -5 -4 -10 -10 -10 -5 0 -10 5 -10 10 0 6 5 10 10 10 6 0 10 -4 10 -10z
m2070 -94 c0 -3 -4 -8 -10 -11 -5 -3 -10 -1 -10 4 0 6 5 11 10 11 6 0 10 -2
10 -4z m-2260 -26 c0 -5 -7 -7 -15 -4 -8 4 -15 8 -15 10 0 2 7 4 15 4 8 0 15
-4 15 -10z m1300 -66 c0 -2 -7 -4 -15 -4 -8 0 -15 4 -15 10 0 5 7 7 15 4 8 -4
15 -8 15 -10z"/>
<path d="M3305 2651 c-3 -5 -1 -12 5 -16 5 -3 10 1 10 9 0 18 -6 21 -15 7z"/>
<path d="M3365 2490 c-3 -5 1 -10 9 -10 9 0 16 5 16 10 0 6 -4 10 -9 10 -6 0
-13 -4 -16 -10z"/>
<path d="M2110 2283 c-8 -3 -27 -19 -41 -35 -17 -18 -30 -25 -34 -19 -3 6 -11
9 -16 6 -5 -4 -9 6 -9 22 l-1 28 -14 -25 c-8 -14 -14 -36 -15 -49 0 -19 4 -22
21 -18 15 4 23 0 26 -13 9 -35 137 -81 147 -53 3 7 -2 17 -11 20 -14 6 -14 8
3 20 23 17 42 16 78 -2 15 -8 36 -15 45 -15 24 0 86 24 105 39 13 11 26 12 74
1 106 -23 121 -24 129 -5 4 13 -2 25 -23 42 -16 13 -35 28 -42 34 -20 17 -81
3 -111 -24 -62 -57 -155 -59 -213 -5 -36 33 -70 58 -78 57 -3 0 -12 -3 -20 -6z"/>
<path d="M2050 1915 c-36 -20 -62 -29 -90 -29 -18 -1 -29 -10 -42 -38 -14 -29
-24 -38 -43 -38 -22 0 -24 -3 -19 -32 8 -50 25 -78 46 -78 11 0 17 -4 13 -9
-3 -5 -1 -12 5 -16 5 -3 10 -1 10 4 0 15 27 14 33 -1 4 -10 7 -10 15 0 5 7 27
18 48 23 36 9 60 12 142 17 21 1 32 7 32 17 0 25 31 30 182 30 l143 0 0 -30
c0 -27 3 -30 30 -27 16 2 34 7 40 11 16 13 76 23 120 21 22 -1 55 -3 74 -3 39
-2 57 18 48 55 -7 25 -44 47 -77 46 -8 -1 -42 5 -75 12 -90 19 -455 15 -604
-6 -31 -5 -42 -3 -37 5 4 6 13 11 20 11 8 0 19 6 25 14 6 7 25 16 41 20 30 5
42 26 16 26 -7 0 -26 2 -42 4 -16 3 -40 -1 -54 -9z"/>
<path d="M2275 1612 c-49 -12 -70 -13 -116 -3 -76 15 -99 14 -99 -5 0 -20 -22
-42 -38 -36 -8 2 -12 -7 -12 -27 0 -24 4 -31 19 -31 10 0 22 8 25 17 5 13 9
14 15 5 11 -18 65 -31 84 -20 11 6 17 5 17 -2 0 -6 6 -7 18 -1 53 27 104 35
207 34 102 -2 113 0 140 21 17 14 23 23 14 24 -8 1 -36 7 -64 15 -82 23 -145
26 -210 9z"/>
<path d="M1971 1554 c0 -11 3 -14 6 -6 3 7 2 16 -1 19 -3 4 -6 -2 -5 -13z"/>
<path d="M3330 1380 c0 -5 5 -10 10 -10 6 0 10 5 10 10 0 6 -4 10 -10 10 -5 0
-10 -4 -10 -10z"/>
<path d="M3410 1311 c0 -11 4 -21 9 -21 18 0 21 18 6 30 -13 10 -15 9 -15 -9z"/>
<path d="M3490 1159 c0 -16 5 -20 20 -16 10 3 24 -1 31 -9 12 -14 29 -10 29 6
0 8 -62 40 -76 40 -2 0 -4 -10 -4 -21z"/>
<path d="M3596 1125 c-3 -8 -3 -28 0 -44 9 -41 -11 -46 -44 -11 -50 52 -63 42
-59 -45 2 -41 6 -77 9 -80 3 -4 2 -21 -3 -38 -6 -23 -5 -37 6 -53 8 -13 12
-30 9 -38 -10 -26 4 -63 26 -69 15 -4 22 1 26 19 3 13 4 31 1 39 -4 8 -2 17 3
20 6 4 10 23 10 44 0 20 5 42 11 48 16 16 -7 53 -42 65 -16 5 -29 16 -29 24 0
18 14 18 50 -1 17 -9 30 -12 30 -9 0 4 11 -6 25 -22 14 -16 25 -37 25 -47 0
-10 6 -30 14 -46 9 -17 11 -32 5 -42 -15 -24 -10 -68 10 -88 16 -16 17 -20 5
-25 -17 -7 -19 -47 -2 -64 9 -9 9 -15 0 -24 -16 -16 -15 -69 2 -90 7 -10 22
-18 32 -18 16 0 14 -3 -6 -13 -24 -12 -25 -16 -22 -92 3 -99 5 -105 37 -105
20 0 26 -4 23 -17 -2 -10 -10 -17 -18 -15 -17 4 -29 -15 -23 -39 4 -14 14 -18
42 -16 29 2 37 6 39 25 2 13 -1 29 -7 36 -7 9 -7 21 1 43 6 16 8 42 4 56 -5
22 -12 27 -36 27 -17 0 -30 5 -30 10 0 6 9 10 19 10 11 0 22 8 25 18 5 19 0
160 -8 232 -3 25 -8 68 -10 95 -7 72 -20 137 -34 162 -7 12 -12 39 -12 61 0
23 -6 45 -15 52 -8 7 -15 23 -15 36 0 37 -61 61 -74 29z m-46 -195 c0 -5 -4
-10 -9 -10 -6 0 -13 5 -16 10 -3 6 1 10 9 10 9 0 16 -4 16 -10z"/>
<path d="M3403 1103 c9 -9 19 -14 23 -11 10 10 -6 28 -24 28 -15 0 -15 -1 1
-17z"/>
<path d="M3726 1065 c13 -62 64 -84 64 -28 0 22 -24 40 -46 33 -4 -1 -11 4
-16 12 -5 8 -6 2 -2 -17z"/>
<path d="M2257 1020 c3 -11 7 -20 9 -20 2 0 4 9 4 20 0 11 -4 20 -9 20 -5 0
-7 -9 -4 -20z"/>
<path d="M3960 1016 c0 -18 52 -56 77 -56 16 0 83 -72 83 -90 0 -4 10 -12 23
-18 l22 -11 -22 0 c-18 -1 -23 -7 -23 -30 0 -34 18 -51 56 -54 33 -2 43 22 23
60 -10 18 -10 26 -1 35 16 16 15 28 -4 28 -8 0 -29 15 -47 34 -18 19 -41 36
-52 38 -11 2 -21 12 -23 22 -2 11 -14 28 -26 37 -26 22 -86 25 -86 5z"/>
<path d="M3852 983 c2 -23 7 -28 27 -25 14 1 27 5 30 8 10 10 -16 39 -38 42
-19 3 -22 0 -19 -25z"/>
<path d="M3196 981 c-4 -5 -9 -29 -12 -54 -6 -42 -5 -44 22 -50 38 -7 51 0 59
30 8 35 -1 58 -31 71 -30 14 -31 14 -38 3z"/>
<path d="M3320 971 c0 -6 5 -13 10 -16 6 -3 10 1 10 9 0 9 -4 16 -10 16 -5 0
-10 -4 -10 -9z"/>
<path d="M3407 932 c-27 -5 -16 -36 13 -40 18 -2 21 0 11 6 -8 6 -9 11 -2 13
17 6 -2 25 -22 21z"/>
<path d="M3864 925 c-3 -7 -4 -26 -2 -42 2 -22 9 -29 31 -31 23 -3 26 -6 16
-18 -8 -10 -15 -11 -24 -4 -17 14 -27 -26 -17 -65 6 -20 17 -31 37 -37 40 -10
58 7 49 46 -4 17 -10 58 -13 91 -6 57 -7 59 -39 66 -23 5 -35 3 -38 -6z"/>
<path d="M3190 834 c0 -8 5 -14 10 -14 6 0 10 -7 10 -15 0 -8 7 -15 15 -15 9
0 15 9 15 24 0 17 -7 25 -25 28 -17 4 -25 1 -25 -8z"/>
<path d="M3790 831 c0 -23 25 -46 35 -32 7 13 -12 51 -25 51 -6 0 -10 -8 -10
-19z"/>
<path d="M4412 794 c1 -9 9 -19 16 -22 9 -3 13 2 10 14 -1 9 -9 19 -16 22 -9
3 -13 -2 -10 -14z"/>
<path d="M3305 780 c-17 -19 -17 -21 0 -40 26 -29 45 -25 45 9 0 41 -22 56
-45 31z"/>
<path d="M4020 790 c-13 -8 -12 -10 3 -10 9 0 17 5 17 10 0 12 -1 12 -20 0z"/>
<path d="M3166 773 c-3 -4 -6 -21 -6 -39 0 -23 7 -36 26 -49 14 -9 30 -13 34
-8 12 13 20 57 12 68 -10 15 -59 35 -66 28z"/>
<path d="M4520 750 c0 -5 5 -10 11 -10 5 0 7 5 4 10 -3 6 -8 10 -11 10 -2 0
-4 -4 -4 -10z"/>
<path d="M3400 725 c0 -15 26 -32 36 -23 2 3 2 13 -2 22 -8 20 -34 21 -34 1z"/>
<path d="M4134 725 c-8 -20 5 -40 18 -27 7 7 16 7 29 -1 23 -14 33 -5 24 22
-7 23 -30 28 -38 9 -4 -10 -6 -10 -6 0 -1 17 -20 15 -27 -3z"/>
<path d="M3510 697 c0 -39 15 -57 47 -57 18 0 23 6 23 26 0 39 -18 64 -45 64
-22 0 -25 -5 -25 -33z"/>
<path d="M3890 679 c0 -22 22 -49 40 -49 24 0 31 11 23 38 -4 16 -13 22 -34
22 -16 0 -29 -5 -29 -11z"/>
<path d="M3325 670 c-4 -6 -3 -16 3 -22 13 -13 23 4 13 21 -7 10 -10 10 -16 1z"/>
<path d="M4390 666 c0 -8 5 -18 10 -21 6 -3 10 3 10 14 0 12 -4 21 -10 21 -5
0 -10 -6 -10 -14z"/>
<path d="M4440 658 c0 -19 2 -20 10 -8 13 19 13 30 0 30 -5 0 -10 -10 -10 -22z"/>
<path d="M4168 653 c-25 -4 -28 -8 -28 -43 0 -39 0 -39 38 -36 36 4 37 5 37
42 0 40 -4 43 -47 37z"/>
<path d="M3520 588 c0 -26 3 -30 11 -18 8 11 12 12 16 3 7 -20 23 -15 23 7 0
16 -26 40 -44 40 -3 0 -6 -15 -6 -32z"/>
<path d="M3895 590 c-2 -4 0 -21 6 -38 7 -21 18 -31 37 -35 44 -8 53 7 29 52
-12 24 -61 38 -72 21z"/>
<path d="M4376 593 c-8 -8 -8 -56 0 -77 4 -10 18 -16 39 -16 30 0 33 3 38 38
2 20 1 41 -4 46 -10 11 -64 18 -73 9z"/>
<path d="M4160 503 c0 -18 4 -33 9 -33 18 0 19 15 5 40 l-13 25 -1 -32z"/>
<path d="M3515 509 c-13 -20 7 -70 32 -80 13 -5 29 -7 34 -3 11 6 12 44 1 61
-11 18 -60 34 -67 22z"/>
<path d="M4210 495 c0 -8 4 -15 10 -15 5 0 7 7 4 15 -4 8 -8 15 -10 15 -2 0
-4 -7 -4 -15z"/>
<path d="M3927 444 c5 -13 52 -29 60 -20 14 14 -9 35 -36 34 -19 -1 -28 -5
-24 -14z"/>
<path d="M4380 441 c0 -6 5 -13 10 -16 6 -3 10 1 10 9 0 9 -4 16 -10 16 -5 0
-10 -4 -10 -9z"/>
<path d="M4420 430 c0 -5 5 -10 10 -10 6 0 10 5 10 10 0 6 -4 10 -10 10 -5 0
-10 -4 -10 -10z"/>
<path d="M4650 392 c0 -26 -5 -53 -12 -60 -9 -9 -8 -16 5 -29 16 -16 17 -13
17 60 0 42 -2 77 -5 77 -3 0 -5 -22 -5 -48z"/>
<path d="M4187 423 c-27 -4 -29 -7 -22 -41 4 -20 8 -38 10 -40 1 -2 18 1 36 6
30 7 34 12 34 43 0 36 -7 40 -58 32z"/>
<path d="M2916 358 c-11 -45 -7 -58 19 -58 18 0 26 7 31 25 3 14 4 32 0 40 -9
23 -43 18 -50 -7z"/>
<path d="M3930 349 c0 -31 16 -48 51 -51 20 -3 24 2 25 24 1 36 -6 44 -43 50
-30 4 -33 2 -33 -23z"/>
<path d="M4364 314 c14 -74 69 -87 74 -16 3 39 1 42 -22 42 -13 0 -32 3 -42 7
-15 5 -16 2 -10 -33z"/>
<path d="M4186 284 c-11 -29 14 -69 28 -45 3 5 15 7 26 4 15 -4 20 0 20 13 0
11 -4 24 -8 29 -10 14 -61 13 -66 -1z"/>
<path d="M2903 253 c-16 -3 -22 -11 -21 -26 0 -12 -2 -29 -6 -38 -9 -22 8 -33
40 -25 17 5 24 13 24 31 0 13 5 27 10 30 11 7 -6 36 -19 34 -3 -1 -16 -4 -28
-6z"/>
<path d="M3165 240 c3 -5 12 -7 20 -3 21 7 19 13 -6 13 -11 0 -18 -4 -14 -10z"/>
<path d="M3467 225 c-7 -20 12 -77 30 -90 24 -18 33 -10 33 28 0 56 -10 75
-36 73 -13 0 -25 -5 -27 -11z"/>
<path d="M3985 230 c-7 -12 2 -30 16 -30 5 0 9 9 9 20 0 21 -15 27 -25 10z"/>
<path d="M3256 219 c-3 -8 -4 -32 -3 -54 1 -28 7 -40 17 -40 22 0 26 77 6 94
-13 11 -17 11 -20 0z"/>
<path d="M3350 200 c0 -13 11 -13 30 0 12 8 11 10 -7 10 -13 0 -23 -4 -23 -10z"/>
<path d="M4235 187 c-11 -7 -21 -13 -23 -13 -2 -1 0 -18 3 -38 6 -32 11 -36
37 -36 28 0 29 1 26 47 -3 50 -12 58 -43 40z"/>
<path d="M3764 166 c-7 -31 -24 -35 -24 -5 0 12 -5 19 -12 17 -10 -4 -13 -27
-9 -67 1 -6 18 -9 39 -7 34 2 37 4 39 33 2 43 -24 65 -33 29z"/>
<path d="M3960 151 c0 -27 24 -72 36 -67 8 3 14 1 14 -4 0 -6 5 -10 11 -10 16
0 1 62 -19 78 -18 14 -42 16 -42 3z"/>
<path d="M2870 90 c0 -23 10 -26 28 -8 18 18 15 28 -8 28 -13 0 -20 -7 -20
-20z"/>
<path d="M2650 70 c0 -5 5 -10 10 -10 6 0 10 5 10 10 0 6 -4 10 -10 10 -5 0
-10 -4 -10 -10z"/>
<path d="M3480 70 c0 -5 5 -10 10 -10 6 0 10 5 10 10 0 6 -4 10 -10 10 -5 0
-10 -4 -10 -10z"/>
<path d="M2388 4173 c6 -2 18 -2 25 0 6 3 1 5 -13 5 -14 0 -19 -2 -12 -5z"/>
<path d="M2350 4140 c20 -13 63 -13 55 0 -3 6 -21 10 -38 10 -24 0 -28 -3 -17
-10z"/>
<path d="M2460 4132 c0 -4 5 -13 12 -20 9 -9 7 -12 -10 -12 -12 0 -22 -4 -22
-9 0 -18 -32 -21 -67 -6 -34 14 -35 14 -30 -5 3 -11 1 -23 -4 -26 -17 -10 -9
-24 15 -24 13 0 29 -6 35 -14 6 -7 24 -12 41 -10 17 2 30 0 30 -5 0 -6 21 -10
48 -9 69 0 102 -6 110 -18 4 -6 24 -17 45 -23 30 -10 41 -10 53 0 14 11 13 14
-6 21 -12 4 -18 12 -15 18 3 5 5 10 3 11 -46 11 -206 24 -215 17 -8 -7 -12 -4
-11 9 0 10 -3 26 -7 36 -5 12 -3 17 9 17 9 0 16 5 16 11 0 8 5 8 15 -1 8 -7
22 -10 30 -6 25 9 17 33 -16 45 -38 13 -59 14 -59 3z"/>
<path d="M2230 4111 c0 -12 5 -21 10 -21 6 0 10 6 10 14 0 8 -4 18 -10 21 -5
3 -10 -3 -10 -14z"/>
<path d="M2126 4103 c-11 -11 -6 -23 9 -23 8 0 15 4 15 9 0 13 -16 22 -24 14z"/>
<path d="M2345 4010 c-3 -5 -1 -10 4 -10 6 0 11 5 11 10 0 6 -2 10 -4 10 -3 0
-8 -4 -11 -10z"/>
<path d="M2750 3910 c12 -22 25 -26 36 -9 7 12 -12 29 -34 29 -10 0 -10 -5 -2
-20z"/>
<path d="M3042 3100 c0 -19 2 -27 5 -17 2 9 2 25 0 35 -3 9 -5 1 -5 -18z"/>
<path d="M1303 1085 c-18 -20 -16 -32 6 -57 19 -20 20 -20 40 -1 17 16 18 22
8 43 -15 29 -37 35 -54 15z"/>
<path d="M1339 966 c-17 -37 -2 -67 29 -55 19 7 23 15 20 41 -4 42 -33 50 -49
14z"/>
<path d="M1373 863 c-16 -6 -17 -43 -2 -43 14 0 39 25 39 39 0 11 -16 13 -37
4z"/>
<path d="M1122 791 c-16 -10 -33 -69 -22 -76 8 -5 50 41 50 54 -1 16 -17 29
-28 22z"/>
<path d="M1408 776 c-22 -17 -23 -36 -2 -36 13 0 14 -3 5 -14 -14 -17 2 -31
25 -22 11 4 14 17 12 43 -4 41 -15 49 -40 29z"/>
<path d="M1103 676 c-14 -16 -14 -74 -1 -82 17 -11 32 15 34 56 2 41 -11 51
-33 26z"/>
<path d="M1434 659 c-3 -6 1 -18 10 -27 15 -15 16 -14 16 11 0 27 -13 36 -26
16z"/>
<path d="M1457 565 c-19 -14 -16 -55 4 -55 20 0 38 28 32 49 -6 24 -11 25 -36
6z"/>
<path d="M1101 547 c-15 -15 -14 -57 2 -57 32 0 51 52 23 63 -7 3 -19 0 -25
-6z"/>
<path d="M1130 453 c0 -5 -10 -13 -22 -18 -16 -7 -24 -20 -26 -41 -3 -27 1
-32 22 -36 14 -3 30 0 35 5 14 14 14 84 1 92 -5 3 -10 2 -10 -2z"/>
<path d="M1098 309 c-10 -5 -18 -21 -18 -34 0 -20 5 -25 24 -25 28 0 49 22 44
47 -4 21 -26 27 -50 12z"/>
<path d="M1607 263 c-9 -16 6 -72 21 -78 21 -8 36 10 27 32 -5 10 -7 26 -6 36
2 11 -5 17 -18 17 -11 0 -22 -3 -24 -7z"/>
<path d="M1344 218 c3 -38 7 -43 30 -46 26 -3 27 -2 24 40 -3 39 -6 43 -31 46
-26 3 -27 2 -23 -40z"/>
<path d="M1077 193 c-3 -5 -4 -19 -2 -33 1 -20 8 -26 33 -28 31 -3 32 -2 32
32 0 33 -2 36 -29 36 -17 0 -32 -3 -34 -7z"/>
<path d="M1350 113 c0 -4 5 -15 10 -23 7 -12 10 -12 10 -1 0 8 6 11 16 7 10
-4 14 -1 12 6 -5 14 -48 24 -48 11z"/>
<path d="M1630 90 c0 -5 9 -10 20 -10 11 0 20 5 20 10 0 6 -9 10 -20 10 -11 0
-20 -4 -20 -10z"/>
<path d="M1570 820 c0 -18 6 -33 15 -37 23 -8 28 1 20 36 -9 41 -35 41 -35 1z"/>
<path d="M891 804 c0 -11 3 -14 6 -6 3 7 2 16 -1 19 -3 4 -6 -2 -5 -13z"/>
<path d="M654 782 c-12 -7 -17 -30 -15 -70 1 -20 6 -23 33 -20 27 3 33 8 39
35 3 17 3 36 0 41 -9 14 -44 23 -57 14z"/>
<path d="M633 643 c-3 -10 -8 -21 -10 -25 -6 -11 27 -38 47 -38 29 0 36 38 11
61 -25 24 -40 24 -48 2z"/>
<path d="M820 531 c0 -35 0 -35 31 -18 33 17 31 41 -3 45 -25 3 -28 0 -28 -27z"/>
<path d="M817 453 c-7 -11 -3 -66 5 -79 4 -6 19 -9 32 -7 21 4 25 10 24 44 0
25 -5 39 -13 39 -8 0 -20 3 -28 6 -8 3 -17 2 -20 -3z"/>
<path d="M822 291 c0 -24 3 -29 24 -27 13 0 24 7 24 14 0 7 -5 10 -11 7 -6 -4
-13 2 -16 14 -8 30 -20 26 -21 -8z"/>
<path d="M810 160 c0 -41 1 -42 27 -35 34 8 31 4 35 40 3 27 0 30 -29 33 -32
3 -33 3 -33 -38z"/>
<path d="M122 249 c-18 -7 -23 -15 -20 -36 2 -23 7 -27 28 -24 29 4 41 18 38
45 -4 24 -16 28 -46 15z"/>
<path d="M101 152 c-10 -19 -5 -58 11 -78 10 -13 69 -4 69 11 1 6 -2 27 -5 48
-6 33 -9 37 -36 37 -18 0 -33 -7 -39 -18z"/>
<path d="M1920 124 c0 -8 7 -22 16 -31 20 -20 39 -3 29 26 -7 24 -45 29 -45 5z"/>
</g>
</svg>
